<?xml version="1.0" encoding="UTF-8" standalone="no"?>
<svg
   xmlns:dc="http://purl.org/dc/elements/1.1/"
   xmlns:cc="http://creativecommons.org/ns#"
   xmlns:rdf="http://www.w3.org/1999/02/22-rdf-syntax-ns#"
   xmlns:svg="http://www.w3.org/2000/svg"
   xmlns="http://www.w3.org/2000/svg"
   xmlns:sodipodi="http://sodipodi.sourceforge.net/DTD/sodipodi-0.dtd"
   xmlns:inkscape="http://www.inkscape.org/namespaces/inkscape"
   inkscape:version="1.0 (4035a4fb49, 2020-05-01)"
   sodipodi:docname="reload.svg"
   id="svg855"
   clip-rule="evenodd"
   fill-rule="evenodd"
   y="0px"
   x="0px"
   viewBox="0 0 100000 100000"
   style="shape-rendering:geometricPrecision;text-rendering:geometricPrecision;image-rendering:optimizeQuality;"
   version="1.1"
   xml:space="preserve"
   fill="#000000"
   width="300px"
   height="300px"><metadata
     id="metadata859"><rdf:RDF><cc:Work
         rdf:about=""><dc:format>image/svg+xml</dc:format><dc:type
           rdf:resource="http://purl.org/dc/dcmitype/StillImage" /><dc:title></dc:title></cc:Work></rdf:RDF></metadata><sodipodi:namedview
     inkscape:current-layer="svg855"
     inkscape:window-maximized="0"
     inkscape:window-y="0"
     inkscape:window-x="78"
     inkscape:cy="141.85298"
     inkscape:cx="63.915318"
     inkscape:zoom="1.1553916"
     showgrid="false"
     id="namedview857"
     inkscape:window-height="1040"
     inkscape:window-width="1274"
     inkscape:pageshadow="2"
     inkscape:pageopacity="0"
     guidetolerance="10"
     gridtolerance="10"
     objecttolerance="10"
     borderopacity="1"
     bordercolor="#666666"
     pagecolor="#ffffff" /><defs
     id="defs849"><style
       id="style847"
       type="text/css">
   
    .fil0 {fill:#000000;fill-rule:nonzero}
   
  </style></defs><g
     transform="translate(4596.5224,-557.48761)"
     id="g853"><path
       id="path851"
       d="m 45240,14718 c 14977,0 27806,9387 32915,22584 h 11888 l -8722,9081 -8723,9078 -8722,-9081 -8722,-9078 H 66671 C 62340,29991 54375,25105 45240,25105 c -13763,0 -24895,11130 -24895,24895 0,13751 11143,24894 24895,24894 9154,0 17142,-4923 21466,-12270 H 78187 C 73101,75865 60256,85281 45240,85281 25760,85281 9958,69479 9958,50000 9958,30535 25774,14718 45240,14718 Z"
       class="fil0" /></g></svg>
